<svg width="51" height="48" viewBox="0 0 51 48" fill="none" xmlns="http://www.w3.org/2000/svg">
<mask id="mask0_3177_885" style="mask-type:luminance" maskUnits="userSpaceOnUse" x="0" y="0" width="51" height="47">
<path d="M50.7842 0.595703H0.78418V46.5957H50.7842V0.595703Z" fill="white"/>
</mask>
<g mask="url(#mask0_3177_885)">
<path d="M31.0067 44.7337C41.2331 44.7337 49.5232 36.4436 49.5232 26.2172C49.5232 15.9908 41.2331 7.70068 31.0067 7.70068C20.7804 7.70068 12.4902 15.9908 12.4902 26.2172C12.4902 36.4436 20.7804 44.7337 31.0067 44.7337Z" fill="#FFA00B"/>
<path d="M24.8103 44.0749C36.1206 44.0749 45.2895 34.906 45.2895 23.5957C45.2895 12.2853 36.1206 3.11646 24.8103 3.11646C13.4999 3.11646 4.33105 12.2853 4.33105 23.5957C4.33105 34.906 13.4999 44.0749 24.8103 44.0749Z" stroke="black" stroke-width="4"/>
<path fill-rule="evenodd" clip-rule="evenodd" d="M25.4386 7.70068H21.5449V25.9052H21.6551L35.2523 25.9053V22.0116H25.4386V7.70068Z" fill="black"/>
</g>
</svg>
