<svg width="46" height="46" viewBox="0 0 46 46" fill="none" xmlns="http://www.w3.org/2000/svg">
<g clip-path="url(#clip0_3177_899)">
<mask id="mask0_3177_899" style="mask-type:luminance" maskUnits="userSpaceOnUse" x="0" y="-1" width="46" height="47">
<path d="M0 -0.5H46V45.5H0V-0.5Z" fill="white"/>
</mask>
<g mask="url(#mask0_3177_899)">
<path d="M0 -0.5V-2.5H-4V-0.5H0ZM46 -0.5H50V-2.5H46V-0.5ZM46 45.5V47.5H50V45.5H46ZM0 45.5H-4V47.5H0V45.5ZM0 1.5H46V-2.5H0V1.5ZM42 -0.5V45.5H50V-0.5H42ZM46 43.5H0V47.5H46V43.5ZM4 45.5V-0.5H-4V45.5H4Z" fill="black"/>
</g>
<path d="M42.0014 11.7468H11.0303V43.5007H42.0014V11.7468Z" fill="#FFA00B"/>
<path d="M14.2354 31.9209V7.14258H23.2002C26.0551 7.14258 28.1896 7.86258 29.6037 9.30258C31.0445 10.7426 31.7649 12.6626 31.7649 15.0626V17.1826C31.7649 19.5826 31.0445 21.5159 29.6037 22.9826C28.1896 24.4226 26.0551 25.1426 23.2002 25.1426H19.038V31.9209H14.2354ZM23.2002 11.7426H19.038V20.5426H23.2002C24.3742 20.5426 25.268 20.2492 25.8817 19.6626C26.522 19.0759 26.8422 18.2492 26.8422 17.1826V15.0626C26.8422 14.0226 26.522 13.2092 25.8817 12.6226C25.268 12.0359 24.3742 11.7426 23.2002 11.7426Z" fill="black"/>
</g>
<defs>
<clipPath id="clip0_3177_899">
<rect width="46" height="46" fill="white"/>
</clipPath>
</defs>
</svg>
